<?xml version="1.0" encoding="UTF-8" standalone="no"?>
<svg width="60px" height="60px" viewBox="0 0 60 60" version="1.1" xmlns="http://www.w3.org/2000/svg" xmlns:xlink="http://www.w3.org/1999/xlink" xmlns:sketch="http://www.bohemiancoding.com/sketch/ns">
    <!-- Generator: Sketch 3.5.1 (25234) - http://www.bohemiancoding.com/sketch -->
    <title>Slice 1</title>
    <desc>Created with Sketch.</desc>
    <defs>
        <path id="path-1" d="M0,0 L60,0 L60,60 L0,60"></path>
    </defs>
    <g id="Page-1" stroke="none" stroke-width="1" fill="none" fill-rule="evenodd" sketch:type="MSPage">
        <g sketch:type="MSLayerGroup">
            <g id="Group-3">
                <mask id="mask-2" sketch:name="Clip 2" fill="white">
                    <use xlink:href="#path-1"></use>
                </mask>
                <g id="Clip-2"></g>
                <path d="M30.0158,4.412 C29.5158,4.412 29.0148,4.427 28.5088,4.456 C14.4238,5.278 3.6338,17.406 4.4558,31.491 C5.2778,45.576 17.4018,56.359 31.4908,55.544 C38.3138,55.146 44.5738,52.115 49.1168,47.008 C53.6598,41.902 55.9418,35.333 55.5438,28.51 C54.7508,14.93 43.4478,4.412 30.0158,4.412 M29.9808,60 C14.2308,60 0.9808,47.67 0.0518,31.748 C-0.9122,15.234 11.7388,1.016 28.2518,0.052 C44.7628,-0.911 58.9838,11.739 59.9478,28.252 C60.4148,36.252 57.7388,43.954 52.4118,49.941 C47.0858,55.927 39.7468,59.482 31.7468,59.948 C31.1558,59.983 30.5658,60 29.9808,60" id="Fill-1" fill="#23242D" sketch:type="MSShapeGroup" mask="url(#mask-2)"></path>
            </g>
            <path d="M28.6014,39.9202 C28.7854,43.0652 30.1824,45.9512 32.5364,48.0452 C34.8904,50.1392 37.9194,51.1932 41.0644,51.0082 C44.2094,50.8252 47.0954,49.4272 49.1894,47.0732 C51.2834,44.7202 52.3364,41.6912 52.1524,38.5462 C51.7734,32.0532 46.1844,27.0742 39.6894,27.4582 C33.1974,27.8362 28.2224,33.4272 28.6014,39.9202 M40.3554,55.4402 C36.3834,55.4402 32.5964,54.0042 29.6044,51.3412 C26.3694,48.4632 24.4494,44.4992 24.1974,40.1772 C23.6774,31.2562 30.5114,23.5742 39.4324,23.0532 C48.3474,22.5332 56.0354,29.3672 56.5564,38.2892 C56.8084,42.6102 55.3634,46.7722 52.4854,50.0062 C49.6074,53.2402 45.6424,55.1602 41.3214,55.4122 C40.9984,55.4312 40.6764,55.4402 40.3554,55.4402" id="Fill-4" fill="#23242D" sketch:type="MSShapeGroup"></path>
        </g>
    </g>
</svg>