<?xml version="1.0" encoding="UTF-8" standalone="no"?>
<svg width="142px" height="20px" viewBox="0 0 142 20" version="1.1" xmlns="http://www.w3.org/2000/svg" xmlns:xlink="http://www.w3.org/1999/xlink" xmlns:sketch="http://www.bohemiancoding.com/sketch/ns">
    <!-- Generator: Sketch 3.5.1 (25234) - http://www.bohemiancoding.com/sketch -->
    <title>Slice 1</title>
    <desc>Created with Sketch.</desc>
    <defs></defs>
    <g id="Page-1" stroke="none" stroke-width="1" fill="none" fill-rule="evenodd" sketch:type="MSPage">
        <g sketch:type="MSLayerGroup" transform="translate(1.000000, 0.000000)" fill="#23242D">
            <path d="M23.1498,0.2881 L19.3538,12.5581 L15.5318,0.2881 L12.1898,0.2881 L8.3948,12.5581 L4.5708,0.2881 L-0.0002,0.2881 L6.6028,19.0001 L10.1578,19.0001 L13.8738,7.2381 L17.5898,19.0001 L21.1178,19.0001 L27.7208,0.2881 L23.1498,0.2881 Z" id="Fill-1" sketch:type="MSShapeGroup"></path>
            <path d="M31.7979,0.2881 L25.1159,19.0001 L29.7399,19.0001 L30.4609,16.7271 L37.1179,16.7271 L37.8399,19.0001 L42.5439,19.0001 L35.7809,0.2881 L31.7979,0.2881 Z M33.8029,5.6341 L36.0489,13.3331 L31.5039,13.3331 L33.8029,5.6341 Z" id="Fill-2" sketch:type="MSShapeGroup"></path>
            <path d="M88.1766,0.2881 L84.3806,12.5581 L80.5586,0.2881 L77.2166,0.2881 L73.4206,12.5581 L69.5976,0.2881 L65.0266,0.2881 L71.6296,19.0001 L75.1846,19.0001 L78.9006,7.2381 L82.6166,19.0001 L86.1456,19.0001 L92.7476,0.2881 L88.1766,0.2881 Z" id="Fill-3" sketch:type="MSShapeGroup"></path>
            <path d="M120.2841,0.2881 L120.2841,12.4781 L113.5211,0.2881 L109.0031,0.2881 L109.0031,19.0001 L113.3341,19.0001 L113.3341,6.9701 L120.0711,19.0001 L124.5881,19.0001 L124.5881,0.2881 L120.2841,0.2881 Z" id="Fill-4" sketch:type="MSShapeGroup"></path>
            <path d="M128.5857,0.2881 L128.5857,19.0001 L140.0007,19.0001 L140.0007,15.5251 L132.9167,15.5251 L132.9167,11.4081 L140.0007,11.4081 L140.0007,8.0131 L132.9167,8.0131 L132.9167,3.7621 L140.0007,3.7621 L140.0007,0.2881 L128.5857,0.2881 Z" id="Fill-5" sketch:type="MSShapeGroup"></path>
            <path d="M54.108,0.2881 L50.847,6.3291 L47.586,0.2881 L42.827,0.2881 L48.388,9.6431 L43.981,17.0581 L44.683,19.0001 L47.586,19.0001 L50.847,12.9851 L54.108,19.0001 L58.893,19.0001 L53.333,9.6431 L58.893,0.2881 L54.108,0.2881 Z" id="Fill-6" sketch:type="MSShapeGroup"></path>
            <path d="M96.8382,0.2881 L90.1562,19.0001 L94.7802,19.0001 L95.5022,16.7271 L102.1582,16.7271 L102.8802,19.0001 L106.8672,19.0001 L106.8672,17.0151 L100.8212,0.2881 L96.8382,0.2881 Z M98.8432,5.6341 L101.0892,13.3331 L96.5442,13.3331 L98.8432,5.6341 Z" id="Fill-7" sketch:type="MSShapeGroup"></path>
        </g>
    </g>
</svg>